<?xml version="1.0" encoding="UTF-8"?> <svg xmlns="http://www.w3.org/2000/svg" width="318" height="318" viewBox="0 0 318 318" fill="none"><path d="M224.195 0.728516L316.528 93.3857L316.301 224.194L223.643 316.528L92.834 316.301L0.499992 223.643L0.728508 92.833L93.3857 0.5L224.195 0.728516Z" fill="#F9C587" stroke="url(#paint0_linear_146_113)"></path><g clip-path="url(#clip0_146_113)"><path fill-rule="evenodd" clip-rule="evenodd" d="M115.01 210.55C114.355 210.743 113.663 210.65 113.003 210.65H83.6186C82.9814 210.65 82.3054 210.743 81.6786 210.55V129.593C81.6786 128.652 82.4065 127.674 82.7846 126.872C82.9789 126.481 83.1135 126.062 83.3104 125.679C84.2014 123.819 85.227 121.738 86.0481 119.932C86.7681 118.369 87.5296 116.838 88.2471 115.292C89.5473 112.543 90.7776 109.881 92.0907 107.147C92.9998 105.272 93.9219 103.299 94.8129 101.403C96.2892 98.3115 97.6775 95.207 99.1875 92.1642C99.5683 91.408 99.9231 90.6106 100.273 89.821C100.628 89.0648 101.014 88.2777 101.392 87.5241C101.721 86.8682 102.013 86.1583 102.35 85.487C103.448 83.1387 104.627 80.6849 105.746 78.2826C107.033 75.569 108.297 72.8555 109.584 70.1419C109.675 69.949 109.742 69.7587 109.851 69.5632C110.068 69.1182 110.296 68.627 110.535 68.1022C111.801 65.4093 113.202 62.5311 114.482 59.761C115.013 58.5958 115.596 57.4666 116.165 56.3041C116.259 56.124 116.349 55.9234 116.432 55.7331C116.544 55.4913 116.626 55.2649 116.735 54.9974C117.09 55.0154 116.945 55.6559 116.945 56.0983C116.945 60.5223 116.787 64.8074 116.787 69.306C116.787 74.1055 116.637 79.0902 116.637 83.9206C116.637 87.2026 116.476 90.4383 116.476 93.6303C116.476 96.8222 116.432 100.169 116.432 103.438C116.432 106.707 116.212 109.878 116.212 113.096C116.212 116.314 116.168 119.634 116.168 122.898C116.168 126.162 115.997 129.398 115.997 132.623C115.997 139.1 115.95 145.62 115.73 152.089C115.541 158.619 115.691 165.119 115.541 171.608C115.451 174.862 115.425 178.118 115.425 181.372C115.425 184.626 115.324 187.846 115.267 191.066C115.179 197.584 115.23 204.081 115.015 210.547" fill="#143756"></path><path fill-rule="evenodd" clip-rule="evenodd" d="M196.051 210.65C185.002 210.614 173.802 210.725 162.82 210.604C162.73 184.793 162.792 157.997 162.792 131.826C162.792 130.707 162.652 129.436 162.984 128.642C163.028 128.559 163.105 128.485 163.142 128.384C163.722 127.178 164.307 125.838 164.947 124.637C169.288 115.328 173.714 106.092 178.079 96.8094C184.652 82.9252 191.218 69.0514 197.786 55.1543C197.786 55.0695 197.823 55.0206 197.9 54.9974H197.991C198.11 64.6428 197.742 74.283 197.742 84.1778C197.742 87.4264 197.579 90.6724 197.579 93.89C197.579 103.638 197.25 113.16 197.25 123.011C197.25 129.493 197.002 135.949 197.002 142.531C197.002 149.113 196.781 155.456 196.781 162.051C196.781 168.645 196.52 174.965 196.52 181.524C196.52 190.452 196.199 199.356 196.199 208.361C196.199 209.122 196.289 209.907 196.048 210.648" fill="#143756"></path><path fill-rule="evenodd" clip-rule="evenodd" d="M120.794 55.2083C120.416 106.954 119.9 158.887 119.356 210.55C119.02 210.63 118.341 210.645 118.012 210.55C117.657 210.267 117.883 209.827 117.883 209.508C117.906 203.706 118.012 197.327 118.012 191.29C118.012 184.816 118.204 178.332 118.204 171.871C118.204 165.41 118.37 158.895 118.37 152.397C118.37 149.175 118.37 145.905 118.471 142.685C118.582 139.437 118.45 136.206 118.582 132.983C118.709 129.74 118.535 126.463 118.683 123.222C118.763 121.607 118.683 119.93 118.683 118.309C118.683 113.495 118.841 108.644 118.841 103.754C118.841 92.3982 119.162 81.0656 119.162 69.7149C119.162 65.2421 119.25 60.7821 119.25 56.3015C119.25 55.944 119.17 55.5401 119.356 55.2058C119.869 55.1157 120.338 55.1646 120.794 55.2058" fill="#143756"></path><path fill-rule="evenodd" clip-rule="evenodd" d="M201.943 55.2675C201.912 61.726 201.785 68.2103 201.785 74.6842C201.785 81.1582 201.568 87.5858 201.568 94.0444C201.568 107.031 201.265 120.015 201.265 133.042C201.265 139.465 201.06 145.929 201.045 152.403C201.045 157.264 201.045 162.148 200.944 167.015C200.853 171.611 200.773 176.567 200.773 181.529C200.773 190.398 200.521 199.279 200.521 208.248C200.521 209.032 200.607 209.832 200.42 210.599C199.946 210.491 199.574 210.743 199.203 210.599C198.934 210.491 198.926 210.228 198.934 209.717C199.185 203.713 198.944 197.394 199.11 191.444C199.343 181.454 199.076 172.025 199.423 162.213C199.529 158.982 199.397 155.739 199.514 152.5C199.628 149.27 199.574 145.993 199.574 142.742C199.574 129.866 199.936 116.777 199.936 103.805C199.936 94.1395 200.2 84.2858 200.2 74.5813C200.2 71.3354 200.239 68.0868 200.301 64.8691C200.397 62.009 200.358 59.1719 200.358 56.3066C200.358 55.9465 200.275 55.5556 200.464 55.2083C200.876 55.1466 201.602 55.108 201.943 55.2701" fill="#143756"></path><path fill-rule="evenodd" clip-rule="evenodd" d="M124.508 65.3398C124.884 65.3655 125.384 65.2781 125.668 65.399C125.738 89.5278 125.104 113.893 125.104 138.199C125.104 144.264 124.928 150.332 124.928 156.418C124.928 165.513 124.671 174.512 124.671 183.723C124.671 191.239 124.474 198.677 124.474 206.375C124.474 207.456 124.407 208.538 124.407 209.662C124.407 209.94 124.531 210.365 124.254 210.604H123.213C122.938 210.349 123.055 209.915 123.055 209.611C123.055 201.056 123.304 192.121 123.304 183.453C123.304 177.486 123.462 171.341 123.462 165.294C123.462 159.247 123.586 153.195 123.625 147.122C123.677 137.994 123.881 129.143 123.881 119.992C123.881 107.867 124.215 95.8834 124.215 83.6583C124.215 79.1597 124.272 74.5942 124.355 70.0313C124.399 68.5241 124.298 66.8573 124.41 65.4993C124.456 65.4504 124.436 65.3604 124.511 65.3424" fill="#143756"></path><path fill-rule="evenodd" clip-rule="evenodd" d="M205.614 65.6999C205.987 65.7282 206.45 65.6459 206.722 65.7539C206.735 77.7322 206.528 89.8879 206.468 102.082C206.404 114.156 206.152 126.332 206.152 138.351C206.152 150.371 205.821 162.552 205.821 174.638C205.821 180.415 205.676 186.514 205.676 192.743C205.676 198.158 205.546 203.97 205.515 209.709C205.515 210.246 205.572 210.47 205.295 210.599C205.039 210.733 204.741 210.501 204.352 210.599C203.984 210.408 204.194 209.984 204.202 209.709C204.308 204.297 204.308 198.422 204.308 192.851C204.308 189.845 204.404 186.789 204.404 183.769C204.404 180.75 204.326 177.689 204.453 174.682C204.585 171.657 204.42 168.604 204.51 165.551C204.598 162.534 204.627 159.53 204.627 156.515C204.627 150.466 204.772 144.393 204.772 138.351C204.782 120.434 205.259 102.247 205.259 83.9566C205.259 78.8433 205.401 73.2876 205.401 68.0482C205.401 67.2483 205.357 66.4355 205.466 65.8054C205.5 65.7513 205.559 65.7231 205.614 65.6973" fill="#143756"></path><path fill-rule="evenodd" clip-rule="evenodd" d="M129.818 75.5202C129.971 75.4713 130.271 75.4559 130.403 75.5202C130.706 75.641 130.654 75.7979 130.665 76.3587C130.709 78.6813 130.558 81.6134 130.558 83.7689C130.558 86.9814 130.558 89.3477 130.457 92.2208C130.338 95.1581 130.478 98.0054 130.403 100.776C130.325 103.631 130.356 106.475 130.356 109.287C130.356 120.521 130.035 131.692 130.035 143.153C130.035 154.615 129.714 165.891 129.714 176.938C129.714 182.223 129.556 188.286 129.556 193.947C129.556 196.758 129.639 199.271 129.512 202.463C129.429 204.516 129.577 207.456 129.45 209.922C129.406 210.732 129.284 210.686 128.621 210.604C128.204 210.552 128.266 210.416 128.243 209.863C128.152 207.628 128.349 204.696 128.349 202.507C128.349 199.279 128.401 196.779 128.401 193.998C128.401 188.047 128.562 182.576 128.562 177.033C128.562 166.012 128.87 154.504 128.87 143.104C128.87 131.705 129.206 120.483 129.206 109.181C129.206 103.559 129.349 97.9694 129.349 92.2156C129.349 89.4686 129.393 86.9814 129.393 83.7046C129.393 82.3053 129.447 81.3588 129.447 79.5789C129.447 78.653 129.427 77.5753 129.447 76.3535C129.458 75.2218 129.442 75.6385 129.81 75.515" fill="#143756"></path><path fill-rule="evenodd" clip-rule="evenodd" d="M210.667 76.2481H211.395C211.726 76.4744 211.553 77.102 211.553 77.9071C211.553 85.7185 211.395 93.4991 211.395 101.203C211.395 106.823 211.281 112.396 211.281 118.158C211.281 132.181 210.923 146.073 210.923 160.281C210.923 171.598 210.664 182.622 210.664 194.101C210.664 198.129 210.563 202.427 210.563 206.787C210.563 207.412 210.576 208.13 210.563 208.922C210.537 209.758 210.602 210.504 210.346 210.599C210.216 210.64 209.999 210.64 209.76 210.599C209.439 210.524 209.4 210.655 209.341 209.92C209.31 209.032 209.4 207.551 209.4 206.787C209.4 205.197 209.455 203.806 209.455 202.618C209.455 199.521 209.519 196.938 209.519 194.256C209.519 179.988 209.82 166.328 209.82 152.032C209.82 143.65 210.027 135.406 210.027 126.864C210.027 111.532 210.39 96.1509 210.39 80.5717C210.39 79.1802 210.434 77.637 210.498 76.3972C210.537 76.3252 210.579 76.2738 210.664 76.2403" fill="#143756"></path><path fill-rule="evenodd" clip-rule="evenodd" d="M134.016 210.604C133.48 210.704 133.514 210.432 133.454 210.136C133.41 209.891 133.446 209.416 133.454 209.248C133.612 202.111 133.612 194.729 133.708 187.738C133.755 185.094 133.604 182.427 133.708 179.803C133.835 177.236 133.825 174.649 133.825 172.025C133.825 164.288 133.993 156.258 134.016 148.537C134.13 130.141 134.506 111.792 134.506 93.3679C134.506 91.426 134.449 89.484 134.552 87.4701C134.578 86.8605 134.552 86.2329 134.713 85.6336C135.197 85.5899 135.477 85.5102 135.555 86.166C135.627 86.8065 135.513 88.4964 135.513 89.0828C135.513 90.6698 135.449 91.8684 135.449 92.8946C135.449 95.5645 135.555 98.2446 135.449 100.835C135.239 106.226 135.423 111.331 135.254 116.445C135.148 119.027 135.197 121.651 135.197 124.272C135.197 132.088 134.99 140.149 134.99 147.909C134.99 158.555 134.713 169.147 134.713 179.494C134.713 184.662 134.726 190.025 134.552 195.259C134.472 197.759 134.578 200.483 134.506 203.129C134.449 204.986 134.449 207.016 134.449 209.035C134.449 209.315 134.472 209.711 134.449 210.028C134.431 210.257 134.532 210.704 134.016 210.604Z" fill="#143756"></path><path fill-rule="evenodd" clip-rule="evenodd" d="M215.658 86.7911H216.298C216.567 87.2489 216.448 87.9254 216.437 88.6173C216.339 98.0928 216.23 107.877 216.23 117.69C216.23 125.388 216.018 133.161 216.018 140.967C216.018 159.216 215.655 177.012 215.655 195.362C215.655 197.656 215.598 200.375 215.598 203.129C215.598 204.696 215.549 206.98 215.549 208.973C215.549 209.413 215.79 210.735 215.119 210.601C214.187 210.684 214.596 209.717 214.596 209.346C214.64 207.597 214.57 205.449 214.596 203.546C214.718 195.809 214.808 187.926 214.808 180.22C214.824 164.633 215.117 149.234 215.117 133.554C215.117 120.606 215.386 107.612 215.386 94.6128C215.386 92.0407 215.469 89.4841 215.487 86.9428C215.515 86.876 215.57 86.8245 215.65 86.7885" fill="#143756"></path><path fill-rule="evenodd" clip-rule="evenodd" d="M139.865 95.7702C139.976 95.7548 140.263 95.7625 140.331 95.8165C140.551 95.9709 140.432 96.7245 140.432 97.1232C140.432 111.156 140.069 124.691 140.069 138.729C140.069 143.567 140.041 148.424 139.911 153.187C139.859 155.605 139.971 158.023 139.911 160.43C139.769 167.58 139.717 174.839 139.717 182.046C139.717 191.146 139.442 200.045 139.442 209.138C139.442 209.588 139.696 210.591 139.082 210.599C138.479 210.614 138.72 209.655 138.72 209.138C138.72 200.228 138.88 191.174 138.981 182.316C139.082 172.727 139.191 163.105 139.191 153.491C139.191 143.876 139.445 134.316 139.445 124.737C139.445 115.159 139.699 105.49 139.72 95.9271C139.743 95.8474 139.8 95.796 139.872 95.7702" fill="#143756"></path><path fill-rule="evenodd" clip-rule="evenodd" d="M220.188 210.604C219.67 210.704 219.81 210.195 219.81 210.028C219.634 208.045 219.81 205.858 219.81 203.816C219.81 196.787 219.968 189.675 219.968 182.566C219.968 177.859 219.968 173.111 220.069 168.375C220.17 163.645 220.025 158.907 220.126 154.17C220.266 147.189 220.279 139.982 220.279 132.888C220.279 125.794 220.39 118.868 220.39 111.637C220.39 108.242 220.491 104.528 220.491 101.048C220.491 99.8213 220.447 98.5764 220.548 97.4987C220.802 97.2158 221.151 97.2158 221.281 97.7533C221.423 98.3706 221.237 99.8676 221.237 100.364V103.968C221.221 120.588 220.9 137.397 220.9 153.92C220.9 170.443 220.61 187.203 220.597 203.868C220.597 205.596 220.548 207.348 220.548 209.189C220.548 209.621 220.786 210.588 220.19 210.604" fill="#143756"></path><path fill-rule="evenodd" clip-rule="evenodd" d="M144.957 105.948C145.493 105.652 145.332 106.931 145.332 107.201C145.198 115.493 145.249 123.816 145.122 131.939C144.99 140.82 144.91 149.591 144.91 158.303C144.91 167.015 144.708 175.93 144.708 184.667C144.708 191.205 144.478 197.777 144.478 204.395C144.478 206.27 144.537 208.114 144.444 210.084C144.433 210.236 144.56 210.534 144.273 210.606C143.729 210.606 143.91 209.801 143.91 209.392C143.9 203.729 144.066 197.334 144.066 191.442C144.066 189.258 144.084 187.049 144.167 184.914C144.263 182.733 144.066 180.51 144.167 178.291C144.273 176.094 144.216 173.895 144.216 171.714C144.216 167.305 144.377 162.922 144.377 158.614C144.377 141.065 144.752 123.431 144.794 106.105C144.832 106.03 144.889 105.981 144.954 105.948" fill="#143756"></path><path fill-rule="evenodd" clip-rule="evenodd" d="M225.702 107.877C226.249 107.633 226.057 108.89 226.057 109.235C226.057 134.735 225.702 159.743 225.702 185.287C225.702 189.623 225.713 193.646 225.643 198.181C225.593 201.424 225.619 205.902 225.542 209.398C225.542 209.663 225.759 210.573 225.334 210.599C224.858 210.627 225.005 209.768 225.005 209.302C225.005 206.537 225.062 204.086 225.062 201.254C225.062 187.254 225.272 173.396 225.272 159.442C225.272 142.091 225.472 125.149 225.542 108.039C225.567 107.965 225.619 107.908 225.7 107.877" fill="#143756"></path><path fill-rule="evenodd" clip-rule="evenodd" d="M149.324 210.55C149.013 210.354 149.16 209.817 149.16 209.3C149.241 194.029 149.487 178.7 149.487 163.373C149.487 159.442 149.632 155.517 149.632 151.572C149.632 139.894 149.87 127.955 149.893 116.285C149.919 116.213 150 116.203 150.01 116.128H150.168C150.271 116.56 150.217 117.044 150.217 117.489C150.217 124.866 150.178 132.307 150.067 139.72C149.943 147.57 150.033 155.484 149.852 163.373C149.751 167.303 149.751 171.274 149.751 175.217C149.751 179.16 149.689 183.111 149.689 187.056C149.689 189.032 149.704 191.041 149.632 193.011C149.463 198.304 149.487 203.744 149.487 209.248C149.487 209.464 149.494 209.735 149.487 209.971C149.474 210.146 149.588 210.45 149.324 210.547" fill="#143756"></path><path fill-rule="evenodd" clip-rule="evenodd" d="M230.478 210.55C230.079 210.57 230.214 209.902 230.214 209.452C230.245 206.414 230.279 202.785 230.279 199.433C230.279 174.433 230.52 149.476 230.52 124.367C230.52 122.417 230.489 120.339 230.577 118.577C230.569 118.49 230.636 118.49 230.636 118.415H230.786C230.994 119.351 230.903 120.3 230.903 121.244C230.903 135.553 230.862 150.183 230.745 164.566C230.711 168.378 230.864 172.187 230.685 175.999C230.499 179.842 230.833 183.736 230.685 187.591C230.535 191.429 230.639 195.279 230.639 199.122C230.639 202.468 230.579 205.815 230.579 209.254C230.579 209.668 230.685 210.149 230.481 210.552" fill="#143756"></path><path fill-rule="evenodd" clip-rule="evenodd" d="M155.05 126.365C155.11 126.602 155.149 126.846 155.159 127.453C155.182 153.542 155.143 183.561 155.11 210.9C154.952 186.938 155.017 155.592 154.991 127.981C154.978 127.111 155.05 127.057 155.05 126.365Z" fill="#143756"></path><path fill-rule="evenodd" clip-rule="evenodd" d="M235.62 129.079C235.713 129.045 235.726 129.179 235.796 129.187C235.78 156.227 235.728 183.077 235.679 210.259C235.7 210.655 235.599 210.411 235.62 210.143V200.519C235.519 177.038 235.62 153.087 235.573 129.408C235.563 129.225 235.62 129.213 235.62 129.079Z" fill="#143756"></path><path fill-rule="evenodd" clip-rule="evenodd" d="M235.415 208.719C235.565 208.77 235.565 209.179 235.475 209.295C235.355 209.202 235.438 208.901 235.415 208.719Z" fill="#143756"></path><path fill-rule="evenodd" clip-rule="evenodd" d="M235.415 209.663C235.438 209.452 235.371 209.971 235.415 209.663Z" fill="#143756"></path><path fill-rule="evenodd" clip-rule="evenodd" d="M235.415 210.023C235.565 210.033 235.516 210.249 235.524 210.39C235.335 210.432 235.459 210.144 235.415 210.023Z" fill="#143756"></path><path fill-rule="evenodd" clip-rule="evenodd" d="M154.317 210.136C154.351 209.987 154.387 210.254 154.377 210.29C154.338 210.39 154.276 210.334 154.317 210.136Z" fill="#143756"></path><path fill-rule="evenodd" clip-rule="evenodd" d="M100.708 223.071C100.441 223.338 100.058 223.253 99.7185 223.338C99.0658 223.487 98.4286 223.611 97.6542 223.758C97.3434 223.809 96.8306 223.997 96.6052 223.92C96.4446 223.855 96.3203 223.464 96.1908 223.179C95.7712 222.307 95.2428 221.847 94.6031 221.306C94.2146 221.134 93.8235 220.962 93.4686 220.777C93.0568 220.769 92.7123 220.602 92.4093 220.568C89.7493 220.288 87.7964 221.468 86.6749 222.816C85.8228 224.174 85.4083 225.934 85.4083 227.667C85.4083 229.902 85.9548 232.053 87.0375 233.357C87.2473 233.591 87.5633 233.82 87.8352 234.043C88.7418 234.782 89.9125 235.306 91.666 235.34C92.2617 235.355 92.8755 235.255 93.3469 235.131C94.6342 234.81 95.7298 234.19 96.6493 233.511C96.7529 232.721 96.7529 231.587 96.6493 230.797C95.1677 230.604 93.1708 230.905 91.7747 230.643C91.71 229.444 91.71 228.385 91.7747 227.25C94.7507 227.173 98.1023 227.173 101.076 227.25C101.169 229.216 101.135 231.33 101.135 233.462C101.135 234.141 101.27 234.951 101.135 235.491C101.058 235.823 100.506 236.199 100.187 236.438C97.8433 238.133 93.896 239.355 90.042 238.889C87.2758 238.56 84.8437 237.158 83.3622 235.34C81.79 233.411 80.7851 230.162 81.0493 226.677C81.3549 222.971 83.0799 220.015 85.7321 218.382C85.8305 218.32 85.9523 218.276 86.0533 218.225C87.9052 217.057 91.6064 216.533 94.5694 217.173C96.4524 217.585 97.9857 218.341 99.0865 219.586C99.905 220.509 100.527 221.762 100.716 223.071" fill="#BC1E2D"></path><path fill-rule="evenodd" clip-rule="evenodd" d="M215.658 223.282C214.402 223.454 212.788 223.549 211.397 223.439C211.26 222.955 211.167 222.52 210.972 222.14C210.669 221.528 210.17 221.165 209.664 220.777C207.603 220.177 204.394 220.35 203.782 222.14C203.619 223.318 204.272 223.698 204.831 224.174C205.355 224.38 205.849 224.557 206.416 224.75C206.859 224.889 207.442 225.059 208.033 225.216C208.799 225.422 209.535 225.584 210.307 225.782C210.983 225.985 211.716 226.201 212.402 226.52C213.78 227.14 214.795 227.845 215.554 229.18C216.119 230.16 216.461 231.548 216.3 233.3C216.14 234.758 215.207 236.412 214.044 237.32C213.917 237.413 213.7 237.493 213.562 237.583C212.85 238.069 211.84 238.488 210.716 238.732C209.395 239.041 207.121 239.131 205.515 238.889C205.08 238.833 204.583 238.647 204.163 238.519C203.197 238.272 202.57 237.896 201.835 237.379C200.224 236.243 199.169 234.334 198.879 231.79C200.086 231.469 201.602 231.453 202.985 231.33C203.36 232.191 203.495 233.035 204.044 233.768C204.427 234.28 205.158 234.89 205.875 235.134C208.222 235.931 211.415 235.103 211.975 233.043C212.205 232.191 211.757 231.168 211.19 230.749C210.579 230.311 209.636 230.1 208.771 229.861C207.895 229.614 206.971 229.411 206.147 229.177C204.316 228.66 202.788 228.05 201.568 227.137C200.024 225.702 199.125 223.482 199.934 221.093C200.428 219.624 201.42 218.523 202.788 217.852C202.956 217.762 203.181 217.615 203.368 217.541C204.21 217.188 205.432 216.988 206.502 216.913C207.074 216.872 207.626 216.939 208.186 216.962C208.763 216.988 209.325 216.936 209.817 217.011C210.115 217.068 210.434 217.196 210.765 217.276C212.317 217.662 213.456 218.348 214.34 219.472C215.101 220.427 215.733 221.623 215.655 223.277" fill="#BC1E2D"></path><path fill-rule="evenodd" clip-rule="evenodd" d="M235.529 217.276C235.62 218.33 235.62 219.727 235.529 220.774C233.581 220.941 231.268 220.725 229.315 220.879C229.129 221.569 229.225 222.315 229.225 223.025V238.57C227.901 238.655 226.215 238.655 224.904 238.57C224.762 232.819 224.964 226.466 224.806 220.877C223.332 220.787 221.633 220.831 220.014 220.831C219.509 220.831 218.978 220.913 218.556 220.723C218.465 219.714 218.465 218.33 218.556 217.333C218.644 217.235 218.75 217.276 218.75 217.276C221.483 217.127 224.355 217.276 227.168 217.276H235.526H235.529Z" fill="#BC1E2D"></path><path fill-rule="evenodd" clip-rule="evenodd" d="M105.277 217.281C108.377 217.381 111.34 217.137 114.422 217.281C115.5 217.325 116.709 217.402 117.574 217.695C118.994 218.171 119.97 219.061 120.737 220.203C120.874 220.422 121.009 220.733 121.157 221.095C121.662 222.382 121.773 224.457 121.312 226.044C121.009 227.112 120.31 228.264 119.525 228.915C119.185 229.195 118.802 229.383 118.424 229.604C118.069 229.815 117.686 229.99 117.256 230.18C116.121 230.442 114.811 230.424 113.425 230.486C112.109 230.54 110.703 230.471 109.488 230.643C109.356 233.189 109.462 235.947 109.436 238.57C108.139 238.665 106.476 238.665 105.176 238.57C105.106 232.418 105.272 224.732 105.176 218.536C105.176 218.156 105.083 217.662 105.176 217.433C105.176 217.351 105.222 217.302 105.277 217.281ZM109.488 220.982C109.39 222.834 109.39 225.038 109.488 226.888C111.363 227.004 113.573 226.988 115.217 226.677C116.497 226.137 117.372 224.93 117.144 223.379C117.02 222.479 116.342 221.672 115.57 221.306C114.759 220.887 113.539 220.939 112.381 220.879C111.48 220.846 110.566 220.805 109.587 220.836C109.53 220.854 109.486 220.9 109.486 220.98" fill="#BC1E2D"></path><path fill-rule="evenodd" clip-rule="evenodd" d="M129.774 217.276C131.121 217.312 132.615 217.212 133.876 217.332C133.959 224.092 133.972 231.646 133.876 238.573C132.579 238.658 130.903 238.658 129.608 238.573C129.528 231.636 129.528 224.326 129.608 217.387C129.647 217.332 129.717 217.302 129.774 217.276Z" fill="#BC1E2D"></path><path fill-rule="evenodd" clip-rule="evenodd" d="M138.29 217.276H140.284C140.903 217.276 141.737 217.111 142.235 217.276C142.556 217.387 143.146 218.624 143.385 219.002C143.812 219.658 144.185 220.257 144.48 220.774C146.335 223.809 148.078 226.669 149.943 229.655C150.308 230.226 150.637 230.857 151.113 231.327C151.253 230.813 151.17 230.239 151.17 229.699C151.17 225.705 151.113 221.304 151.214 217.332C152.401 217.248 153.965 217.248 155.159 217.332C155.208 223.709 155.143 231.525 155.159 238.573C153.848 238.699 152.302 238.593 150.896 238.635C150.624 238.419 150.499 238.082 150.331 237.793C149.803 236.983 149.243 236.091 148.702 235.239C146.749 232.127 144.781 228.912 142.81 225.782C142.649 225.527 142.582 225.113 142.237 225.005C142.043 225.512 142.123 226.101 142.123 226.633V238.575C140.906 238.66 139.347 238.66 138.134 238.575V217.389C138.168 217.335 138.22 217.304 138.292 217.278" fill="#BC1E2D"></path><path fill-rule="evenodd" clip-rule="evenodd" d="M162.31 217.338C163.789 221.52 165.195 225.774 166.661 230.005C166.76 230.273 166.858 230.496 166.939 230.749C167.047 231.124 167.205 231.533 167.345 231.963C167.451 232.238 167.472 232.642 167.765 232.845C167.982 232.77 167.925 232.526 167.975 232.369C168.806 230.005 169.635 227.5 170.459 225.062C171.339 222.456 172.114 219.815 173.082 217.278C174.566 217.314 176.162 217.217 177.55 217.34C176.985 219.154 176.299 220.915 175.652 222.708C175.333 223.606 175.03 224.48 174.709 225.37C173.129 229.756 171.518 234.241 169.878 238.632H165.291C162.748 231.574 160.199 224.527 157.682 217.438C157.682 217.353 157.713 217.302 157.77 217.278C159.275 217.314 160.901 217.217 162.308 217.34" fill="#BC1E2D"></path><path fill-rule="evenodd" clip-rule="evenodd" d="M180.026 217.276C185.261 217.312 190.627 217.212 195.787 217.332C195.826 217.816 195.787 218.441 195.787 219.102C195.787 219.714 195.844 220.373 195.743 220.774C192.039 220.897 188.12 220.802 184.328 220.833C184.137 221.504 184.22 222.335 184.22 223.176C184.22 224.017 184.183 224.866 184.279 225.579C187.703 225.736 191.518 225.527 194.945 225.679C195.059 226.705 194.979 228.189 195.005 229.118C191.531 229.249 187.866 229.146 184.331 229.174C184.139 229.589 184.222 230.1 184.222 230.589C184.222 232.001 184.186 233.655 184.282 235.018C187.742 235.129 192.005 235.018 195.207 235.08C195.561 235.08 195.903 234.998 196.201 235.129C196.302 236.165 196.302 237.541 196.201 238.573C190.899 238.658 185.225 238.658 179.92 238.573C179.785 231.811 179.902 223.886 179.855 217.433C179.902 217.356 179.946 217.314 180.029 217.276" fill="#BC1E2D"></path><path fill-rule="evenodd" clip-rule="evenodd" d="M125.35 234.604C125.459 235.805 125.376 237.472 125.42 238.568C124.184 238.66 122.594 238.66 121.361 238.568C121.27 237.971 121.307 237.261 121.307 236.541C121.307 235.872 121.234 235.131 121.405 234.604C122.612 234.524 124.158 234.524 125.352 234.604" fill="#BC1E2D"></path><path fill-rule="evenodd" clip-rule="evenodd" d="M237 263H82.0438C82.0697 257.154 81.9895 250.631 82.0879 245.209C82.1708 245.199 82.1941 245.127 82.251 245.109C133.806 245.145 185.484 245.026 236.935 245.155C237.054 251.004 236.951 257.066 237 263.003" fill="#143756"></path></g><defs><linearGradient id="paint0_linear_146_113" x1="29.7215" y1="57.4616" x2="277.896" y2="279.878" gradientUnits="userSpaceOnUse"><stop stop-color="white" stop-opacity="0.25"></stop><stop offset="1" stop-color="#F7C587"></stop></linearGradient><clipPath id="clip0_146_113"><rect width="156" height="208" fill="white" transform="translate(81 55)"></rect></clipPath></defs></svg> 