<?xml version="1.0" encoding="UTF-8"?> <svg xmlns="http://www.w3.org/2000/svg" width="364" height="364" viewBox="0 0 364 364" fill="none"><rect width="320" height="320" transform="translate(21.8496 22)" fill="url(#paint0_radial_110_100)" fill-opacity="0.3"></rect><path d="M247.682 24.2129L340.015 116.87L339.787 247.679L247.129 340.013L116.321 339.785L23.9865 247.127L24.215 116.317L116.872 23.9844L247.682 24.2129Z" stroke="url(#paint1_linear_110_100)"></path><path d="M252.808 11.8965L352.349 111.787L352.103 252.808L252.212 352.349L111.191 352.103L11.6504 252.212L11.8965 111.191L111.787 11.6504L252.808 11.8965Z" stroke="#F8E3C9" stroke-opacity="0.25"></path><path d="M257.441 0.761719L363.499 107.191L363.237 257.441L256.808 363.499L106.558 363.237L0.5 256.808L0.761719 106.558L107.191 0.5L257.441 0.761719Z" stroke="#F8E3C9" stroke-opacity="0.1"></path><defs><radialGradient id="paint0_radial_110_100" cx="0" cy="0" r="1" gradientUnits="userSpaceOnUse" gradientTransform="translate(160 160) rotate(90) scale(148)"><stop stop-color="#F7C587"></stop><stop offset="1" stop-color="#F7C587" stop-opacity="0"></stop></radialGradient><linearGradient id="paint1_linear_110_100" x1="53.208" y1="80.946" x2="301.383" y2="303.362" gradientUnits="userSpaceOnUse"><stop stop-color="white" stop-opacity="0.25"></stop><stop offset="1" stop-color="#F7C587"></stop></linearGradient></defs></svg> 