<?xml version="1.0" encoding="UTF-8"?> <svg xmlns="http://www.w3.org/2000/svg" width="140" height="70" viewBox="0 0 140 70" fill="none"><mask id="mask0_17618_2117" style="mask-type:luminance" maskUnits="userSpaceOnUse" x="0" y="0" width="140" height="70"><path d="M139.521 0H0V70H139.521V0Z" fill="white"></path></mask><g mask="url(#mask0_17618_2117)"><path d="M13.246 46.5444C12.4884 45.9691 11.9419 45.178 11.9419 44.3006C11.9419 43.0875 12.8816 42.2965 14.1857 42.2389C15.3699 42.1766 16.9186 42.7567 17.8871 43.9074C18.5535 43.7875 19.4021 43.6964 20.1309 43.7252C22.1925 43.8163 23.2569 44.6649 23.2569 45.6382C23.2569 47.0047 21.1329 48.0978 18.7069 48.0978C17.1295 48.0978 15.6097 47.8245 14.459 47.2492C14.3056 47.4601 14.1234 47.7958 14.0035 48.1601C13.8836 48.5245 13.8501 48.8266 13.9124 49.1286C14.248 49.0663 14.972 49.0088 15.3987 49.0375C16.2761 49.0663 17.1008 49.2821 17.0384 49.7951C16.9761 50.2218 16.1275 50.3704 15.3699 50.3704C14.4302 50.3704 13.3371 50.0684 12.9439 49.5506C12.124 49.8526 11.0309 50.5526 10.1823 51.3725C9.20897 52.2834 8.45145 53.53 8.39391 54.7095C8.33158 56.1382 9.39597 56.9245 10.8823 56.9245C12.6754 56.9245 14.1617 56.1334 15.346 55.3471C16.1371 54.8006 17.1343 53.9184 17.4987 53.5875C17.7432 53.3766 17.8343 53.343 17.8919 53.4054C17.9542 53.4677 17.9206 53.5588 17.6186 53.8321C17.2254 54.1964 16.1323 55.1697 15.4658 55.6204C14.2193 56.5026 12.6754 57.2601 10.8823 57.3512C8.27405 57.4711 6.54322 56.5601 6.54322 54.6519C6.51445 52.4369 8.96925 50.2218 12.7953 49.3396C12.6419 49.0951 12.5843 48.7307 12.5843 48.3375C12.5843 47.7286 12.8864 47.0622 13.2508 46.5492M14.1282 42.5074C13.0973 42.5697 12.2151 43.1738 12.2151 44.267C12.2151 45.0245 12.6994 45.691 13.4282 46.2999C13.5816 46.0889 13.8836 45.7821 14.0658 45.6334C14.9145 44.9047 16.0412 44.3581 17.3117 44.0225C16.5542 43.0828 15.2501 42.4451 14.1234 42.5026M15.4035 50.0971C15.9788 50.1259 16.4966 50.006 16.4966 49.704C16.4966 49.4307 15.8925 49.3108 15.4035 49.2773C15.0679 49.2485 14.3727 49.2773 13.9747 49.3396C14.0946 49.8238 14.7946 50.0684 15.4035 50.0971ZM22.5329 45.6334C22.5953 44.9047 22.0151 44.056 20.2268 43.9649C19.5891 43.9649 18.8604 44.0848 18.1651 44.3293C18.3473 44.6937 18.5008 45.178 18.5583 45.667C18.6206 46.1848 18.5871 46.4581 18.496 46.4581C18.4336 46.4581 18.4672 46.3047 18.3425 45.8492C18.2227 45.3649 17.9494 44.8807 17.6761 44.5115C16.9186 44.8759 16.1275 45.4512 15.461 46.0602C15.2788 46.2136 14.8521 46.6691 14.6124 46.9999C15.7056 47.5464 17.1918 47.791 18.6494 47.791C20.6535 47.791 22.5042 46.9999 22.5329 45.6382M23.3528 54.3738C23.0172 54.5848 22.5953 54.8293 22.0775 55.1026C21.1665 55.5869 20.2268 56.0423 19.1624 56.378C18.8891 56.469 18.3713 56.5889 18.1316 56.5889C17.9206 56.5889 17.7049 56.5266 17.6761 56.2245C17.6425 56.0423 17.796 55.8601 17.9494 55.678C18.3713 55.1937 18.9514 54.5225 19.4357 53.9184C19.8624 53.3718 20.3179 52.7341 20.5576 52.2499C20.6487 52.0677 20.6487 51.8855 20.5576 51.8232C20.4377 51.7321 20.222 51.7944 20.1021 51.8519C19.7665 52.0054 19.2823 52.3697 18.9179 52.6718C18.4336 53.0649 17.796 53.6451 17.6425 53.7937C17.5227 53.9136 17.398 53.9759 17.3405 53.9136C17.2782 53.8512 17.3405 53.7314 17.4604 53.6115C17.6425 53.4293 18.6446 52.5184 19.0665 52.1827C19.7953 51.6074 20.5528 51.1184 21.1905 51.1184C21.7658 51.1184 22.1302 51.454 22.0391 52.1827C21.9768 52.7293 21.5213 53.4581 20.9747 54.1245C20.3371 54.9444 19.5795 55.6732 19.2439 55.9752C20.035 55.7643 21.0658 55.28 21.9768 54.791C22.2788 54.6375 23.0076 54.2156 23.3145 53.9711C23.3432 53.3958 23.7076 52.667 24.0145 52.2403C24.561 51.4492 25.0788 51.0273 25.472 51.1184C25.8364 51.2095 25.8076 51.756 25.5631 52.2115C25.3521 52.5759 24.8631 53.3622 23.6213 54.1821C23.6788 54.4841 23.9521 54.6375 24.2877 54.6663C24.7145 54.6951 25.2275 54.5464 25.7453 54.1821C26.1097 53.9088 26.3829 53.6643 26.5028 53.5444C26.6562 53.391 26.8672 53.2088 26.9583 53.2999C27.0206 53.3622 26.8384 53.5732 26.6562 53.7554C26.474 53.9375 26.2918 54.091 25.9275 54.3643C25.4097 54.7286 24.8967 54.9396 24.3213 54.9396C23.8371 54.9396 23.4391 54.6951 23.348 54.3643M31.1247 55.0115C31.7001 54.6184 32.4001 54.0718 32.9754 53.554C33.1576 53.4006 33.2487 53.3718 33.311 53.4341C33.3734 53.5252 33.2487 53.6786 33.0665 53.8273C32.6734 54.1917 31.7001 54.978 31.1535 55.3423C29.8782 56.191 28.7562 56.5889 27.7254 56.5889C26.6035 56.5889 26.0857 56.1622 26.1145 55.3759C26.1432 54.767 26.4165 54.2252 27.0254 53.4964L26.9966 53.4677C26.9055 53.5588 26.5699 53.8608 26.3877 54.0143C26.2343 54.1341 26.1432 54.1677 26.0857 54.1054C26.0234 54.0143 26.148 53.8944 26.2679 53.7697C26.661 53.4053 26.9343 53.1944 27.3898 52.8588C27.7254 52.6143 28.3008 52.2499 28.8761 51.9478C29.7535 51.4923 30.6645 51.0992 31.4843 51.0992H31.5131C32.1795 51.0992 32.424 51.5259 32.3953 51.919C32.3329 52.7053 31.3644 53.3143 30.4535 53.7697C29.5713 54.1964 28.5405 54.5608 27.8405 54.7382C27.7206 54.9827 27.6583 55.256 27.6583 55.4382C27.6583 55.8937 27.9028 56.1382 28.3583 56.1382C28.7514 56.1382 29.7823 55.9273 31.1199 55.0163M30.0939 53.4964C30.8514 52.9786 31.3069 52.341 31.3405 51.919C31.3692 51.6458 31.2494 51.4923 30.9761 51.4923C30.7028 51.4923 30.2473 51.7944 29.6432 52.3745C29.159 52.83 28.3967 53.8033 28.0371 54.4074C28.646 54.254 29.4658 53.9232 30.0987 53.4964M38.2254 51.9478C38.2254 52.341 37.4966 52.9786 36.8302 53.7697C36.3124 54.3786 35.948 54.8917 35.7994 55.1985C35.646 55.4718 35.646 55.6828 35.7706 55.7738C35.8905 55.8649 36.1062 55.8362 36.4371 55.654C36.7727 55.4718 37.3192 55.1362 37.8035 54.743C38.4699 54.23 38.8343 53.9232 39.2323 53.5588C39.4432 53.3478 39.6254 53.2567 39.6877 53.3143C39.7788 53.4054 39.5679 53.5875 39.3233 53.8321C38.959 54.1677 38.3501 54.7095 37.5925 55.2896C36.9549 55.7738 35.8905 56.5026 34.8932 56.5026C34.2555 56.5026 33.9199 56.167 33.9535 55.7115C33.9871 55.0451 34.7446 54.1965 35.411 53.5588C36.1398 52.8588 37.2905 52.0389 37.3816 51.828C37.5014 51.4923 36.9261 51.5834 36.1686 51.5834C35.8665 51.5834 35.622 51.5834 35.4686 51.5211C35.224 51.7944 34.8021 52.2211 34.3179 52.6718C33.8001 53.156 33.4357 53.4917 33.1049 53.7937C32.8316 54.0382 32.7117 54.0958 32.6494 54.0382C32.5871 53.9759 32.6781 53.8273 32.985 53.554C33.3494 53.2184 33.6227 52.9786 34.1692 52.4608C34.596 52.0677 34.9891 51.6697 35.2336 51.4012C34.9603 51.2191 34.9316 50.7923 35.2336 50.428C35.4781 50.1259 35.9001 49.9102 36.3843 49.9102C36.6288 49.9102 36.9021 50.03 36.9309 50.2122C36.7199 50.3656 36.5953 50.4567 36.4131 50.6389C36.0199 51.0656 36.111 51.2766 36.5042 51.3054C37.3528 51.3341 38.235 51.3677 38.235 51.9143V51.943L38.2254 51.9478ZM44.5686 51.128C45.1775 51.2191 45.3261 51.6745 45.2686 52.1588H45.2973C45.9638 51.4012 46.2994 51.128 46.7549 51.128C47.3302 51.128 47.4836 51.2478 47.148 51.6122C46.6014 52.2499 46.1747 52.8252 45.5706 53.6163C45.0528 54.2828 43.9932 55.7691 43.0823 56.9821C43.7487 56.5889 45.0864 55.7691 45.9973 55.0691C46.6638 54.5512 47.2439 54.1006 47.8768 53.5204C48.0302 53.367 48.1788 53.3095 48.2412 53.367C48.3323 53.4581 48.0877 53.669 47.9391 53.8225C47.4836 54.2492 46.846 54.7622 46.1508 55.3088C45.0576 56.1286 43.7823 56.9197 42.8138 57.4615C41.5097 59.3745 39.5343 61.9204 38.6569 62.8937C36.624 65.1375 34.198 67.0506 32.4049 67.9903C31.6138 68.417 30.8898 68.628 30.3097 68.628C29.5521 68.628 28.7323 68.3834 28.8809 67.3526C29.1254 65.5307 32.6446 62.9848 35.0131 61.4362C37.8035 59.6478 39.0788 58.9766 41.174 57.6725C41.7206 56.9149 42.7227 55.5485 43.2069 54.8197L43.1781 54.791C42.3583 55.4862 41.0254 56.4307 39.8987 56.493C39.2323 56.5218 38.561 56.2821 38.6521 55.28C38.7144 54.8245 38.9542 54.3403 39.5008 53.7026L39.472 53.6738C39.3809 53.7649 39.261 53.8848 39.0788 54.0382C38.959 54.1293 38.8679 54.1917 38.8055 54.1293C38.7432 54.0382 38.959 53.7937 39.2898 53.4917C39.3809 53.4006 39.8364 53.0362 40.1384 52.8252C40.4405 52.6143 40.9247 52.2786 41.5336 51.9766C42.6268 51.4012 43.7775 51.0081 44.5686 51.128ZM34.8261 61.9923C32.2754 63.6896 30.0316 65.7848 29.9117 67.3622C29.883 67.8177 30.0651 68.091 30.3672 68.1821C30.8514 68.3355 31.7336 68.0286 32.2802 67.6978C33.6466 66.878 35.435 65.3006 37.8323 62.2369C39.0453 60.6882 40.2918 59.0485 40.896 58.1999C39.1076 59.3841 37.6501 60.1129 34.8261 61.9923ZM41.6535 53.343C40.4069 54.556 39.8939 55.3471 39.9562 55.7403C39.985 55.9512 40.1384 56.0423 40.3494 56.0423C40.9247 56.0423 42.0802 55.3759 42.9001 54.6136C43.8734 53.7649 44.9617 52.4608 44.9953 51.9718C45.024 51.5786 44.7843 51.4252 44.4487 51.4252C43.8398 51.4252 42.7514 52.2451 41.6583 53.3382M53.098 51.9478C53.098 52.341 52.3692 52.9786 51.7028 53.7697C51.1898 54.3786 50.8254 54.8917 50.672 55.1985C50.5186 55.4718 50.5186 55.6828 50.6432 55.7738C50.7631 55.8649 50.9788 55.8362 51.3097 55.654C51.6453 55.4718 52.187 55.1362 52.6761 54.743C53.3425 54.23 53.7069 53.9232 54.1049 53.5588C54.3158 53.3478 54.498 53.2567 54.5603 53.3143C54.6514 53.4054 54.4405 53.5875 54.196 53.8321C53.8316 54.1677 53.2275 54.7095 52.4651 55.2896C51.8275 55.7738 50.7631 56.5026 49.761 56.5026C49.1234 56.5026 48.7925 56.167 48.8213 55.7115C48.8501 55.0451 49.6124 54.1965 50.2788 53.5588C51.0076 52.8588 52.1583 52.0389 52.2494 51.828C52.3692 51.4923 51.7939 51.5834 51.0364 51.5834C50.7343 51.5834 50.4898 51.5834 50.3364 51.5211C50.0918 51.7944 49.6699 52.2211 49.1809 52.6718C48.6679 53.156 48.3035 53.4917 47.9679 53.7937C47.6946 54.0382 47.5747 54.0958 47.5124 54.0382C47.4501 53.9759 47.5412 53.8273 47.848 53.554C48.2124 53.2184 48.4857 52.9786 49.0323 52.4608C49.459 52.0677 49.8521 51.6697 50.0966 51.4012C49.8233 51.2191 49.7946 50.7923 50.0966 50.428C50.3412 50.1259 50.7631 49.9102 51.2521 49.9102C51.4966 49.9102 51.7699 50.03 51.7987 50.2122C51.5877 50.3656 51.4631 50.4567 51.2809 50.6389C50.8877 51.0656 50.9788 51.2766 51.372 51.3054C52.2206 51.3341 53.1028 51.3677 53.1028 51.9143V51.943L53.098 51.9478ZM58.7124 55.0115C59.2877 54.6184 59.9877 54.0718 60.5631 53.554C60.7453 53.4006 60.8364 53.3718 60.8939 53.4341C60.9562 53.5252 60.8316 53.6786 60.6494 53.8273C60.2562 54.1917 59.2829 54.978 58.7364 55.3423C57.461 56.191 56.3391 56.5889 55.3083 56.5889C54.1864 56.5889 53.6686 56.1622 53.7021 55.3759C53.7309 54.767 54.0042 54.2252 54.6131 53.4964L54.5795 53.4677C54.4884 53.5588 54.1528 53.8608 53.9754 54.0143C53.822 54.1341 53.7309 54.1677 53.6734 54.1054C53.611 54.0143 53.7357 53.8944 53.8555 53.7697C54.2487 53.4053 54.522 53.1944 54.9775 52.8588C55.3131 52.6143 55.8884 52.2499 56.4638 51.9478C57.346 51.4923 58.2569 51.0992 59.072 51.0992H59.1007C59.7672 51.0992 60.0117 51.5259 59.9829 51.919C59.9206 52.7053 58.9521 53.3143 58.0412 53.7697C57.159 54.1964 56.1281 54.5608 55.4329 54.7382C55.3131 54.9827 55.2507 55.256 55.2507 55.4382C55.2507 55.8937 55.4953 56.1382 55.9508 56.1382C56.3439 56.1382 57.3795 55.9273 58.7124 55.0163M57.6816 53.4964C58.4391 52.9786 58.8946 52.341 58.9282 51.919C58.9569 51.6458 58.837 51.4923 58.5638 51.4923C58.2905 51.4923 57.835 51.7944 57.2261 52.3745C56.7418 52.83 55.9843 53.8033 55.6199 54.4074C56.2288 54.254 57.0439 53.9232 57.6816 53.4964ZM65.1802 55.0115C65.7556 54.6184 66.4555 54.0718 67.0309 53.554C67.2131 53.4006 67.3042 53.3718 67.3665 53.4341C67.4288 53.5252 67.3042 53.6786 67.122 53.8273C66.7288 54.1917 65.7556 54.978 65.209 55.3423C63.9336 56.191 62.8117 56.5889 61.7809 56.5889C60.659 56.5889 60.1412 56.1622 60.1699 55.3759C60.1987 54.767 60.472 54.2252 61.0809 53.4964L61.0521 53.4677C60.961 53.5588 60.6254 53.8608 60.4432 54.0143C60.2898 54.1341 60.1987 54.1677 60.1412 54.1054C60.0788 54.0143 60.1987 53.8944 60.3234 53.7697C60.7165 53.4053 60.9898 53.1944 61.4453 52.8588C61.7809 52.6143 62.3562 52.2499 62.9316 51.9478C63.809 51.4923 64.7199 51.0992 65.5398 51.0992H65.5733C66.2398 51.0992 66.4843 51.5259 66.4508 51.919C66.3884 52.7053 65.4199 53.3143 64.509 53.7697C63.6316 54.1964 62.5959 54.5608 61.9007 54.7382C61.7809 54.9827 61.7186 55.256 61.7186 55.4382C61.7186 55.8937 61.9631 56.1382 62.4186 56.1382C62.8117 56.1382 63.8425 55.9273 65.1802 55.0163M64.1494 53.4964C64.9069 52.9786 65.3624 52.341 65.3912 51.919C65.4247 51.6458 65.3001 51.4923 65.0268 51.4923C64.7535 51.4923 64.298 51.7944 63.6891 52.3745C63.2049 52.83 62.4425 53.8033 62.0829 54.4074C62.687 54.254 63.5117 53.9232 64.1446 53.4964M74.2514 55.4382C74.1603 55.7403 74.1891 55.9848 74.2514 56.1382C74.3425 56.3492 74.5871 56.4403 74.8268 56.4738C75.6466 56.5362 76.5288 56.2293 77.4062 55.7451C78.135 55.3184 79.2281 54.441 79.8946 53.3191C80.2254 52.8012 80.4412 52.1971 80.4987 51.7417C80.561 51.4396 80.4987 51.3149 80.561 51.3149C80.6521 51.3149 80.6809 51.5882 80.6809 51.7417C80.6521 52.2595 80.4987 52.8636 80.1966 53.4389C79.5877 54.5608 78.4658 55.5629 77.5549 56.0807C76.7062 56.5649 75.5508 56.9917 74.1843 56.9006C73.3645 56.8382 72.8514 56.5362 72.7603 55.8074C72.6693 55.0499 73.2158 54.23 73.7336 53.5923C74.1891 53.0458 74.6446 52.5327 75.009 52.106C75.1288 51.9526 75.1912 51.7704 75.0425 51.6793C74.8891 51.5882 74.5583 51.7081 74.2514 51.8615C73.7049 52.1348 72.8562 52.6526 71.8829 53.4101C70.5453 54.441 69.8165 55.141 68.4836 56.1718C68.2103 56.3828 68.0281 56.4451 67.6925 56.4451C67.2706 56.4451 67.0549 56.3828 67.2994 55.9608C67.5103 55.5677 68.148 54.5656 68.6371 53.928C68.9727 53.4725 69.5145 52.7773 69.8501 52.3506C70.061 52.0773 70.1234 51.9238 70.061 51.8328C69.9699 51.7129 69.7877 51.7704 69.6055 51.8615C69.2412 52.0437 68.7857 52.3793 68.4213 52.6814C68.0281 53.017 67.5439 53.4389 67.1172 53.8369C66.8151 54.1101 66.6953 54.2012 66.6042 54.1101C66.5419 54.0191 66.6953 53.8656 67.0597 53.5348C67.424 53.1992 68.0905 52.5615 68.6371 52.1396C69.4569 51.5019 70.061 51.1375 70.6987 51.1375C71.274 51.1375 71.4562 51.4732 71.4562 51.804C71.4562 52.1684 71.2117 52.5615 70.8186 53.1081C70.3631 53.717 69.7254 54.5369 69.3898 55.0211L69.4186 55.0499C70.1473 54.441 71.1494 53.5636 72.209 52.7725C73.2733 51.9814 74.6062 51.1327 75.5172 51.1327C76.1549 51.1327 76.5192 51.4348 76.4569 51.9526C76.3658 52.4992 75.7281 53.1992 75.2439 53.8033C74.7884 54.3786 74.3617 55.0163 74.2418 55.443M92.6768 46.5444C91.9192 45.9691 91.3727 45.178 91.3727 44.3006C91.3727 43.0875 92.3124 42.2965 93.6165 42.2389C94.8008 42.1766 96.3494 42.7567 97.3179 43.9074C97.9843 43.7875 98.8329 43.6964 99.5617 43.7252C101.623 43.8163 102.688 44.6649 102.688 45.6382C102.688 47.0047 100.564 48.0978 98.1377 48.0978C96.5603 48.0978 95.0405 47.8245 93.8898 47.2492C93.7364 47.4601 93.5542 47.7958 93.4343 48.1601C93.3144 48.5245 93.2809 48.8266 93.3432 49.1286C93.6788 49.0663 94.4028 49.0088 94.8295 49.0375C95.7117 49.0663 96.5268 49.2821 96.4692 49.7951C96.4117 50.2218 95.5583 50.3704 94.8008 50.3704C93.861 50.3704 92.7679 50.0684 92.3747 49.5506C91.5549 49.8526 90.4617 50.5526 89.6131 51.3725C88.6446 52.2834 87.8822 53.53 87.8247 54.7095C87.7624 56.1382 88.8268 56.9245 90.3131 56.9245C92.1014 56.9245 93.5925 56.1334 94.772 55.3471C95.5583 54.8006 96.5651 53.9184 96.9247 53.5875C97.1692 53.3766 97.2603 53.343 97.3179 53.4054C97.3802 53.4677 97.3466 53.5588 97.0446 53.8321C96.6514 54.1964 95.5583 55.1697 94.8918 55.6204C93.6453 56.5026 92.1014 57.2601 90.3083 57.3512C87.7001 57.4711 85.9692 56.5601 85.9692 54.6519C85.9357 52.4369 88.3953 50.2218 92.2213 49.3396C92.0679 49.0951 92.0103 48.7307 92.0103 48.3375C92.0103 47.7286 92.3124 47.0622 92.6768 46.5492M93.559 42.5074C92.5282 42.5697 91.646 43.1738 91.646 44.267C91.646 45.0245 92.1302 45.691 92.859 46.2999C93.0124 46.0889 93.3145 45.7821 93.4966 45.6334C94.3453 44.9047 95.4672 44.3581 96.7425 44.0225C95.985 43.0828 94.6809 42.4451 93.5542 42.5026M94.8295 50.0971C95.4049 50.1259 95.9227 50.006 95.9227 49.704C95.9227 49.4307 95.3138 49.3108 94.8295 49.2773C94.4939 49.2485 93.7987 49.2773 93.4055 49.3396C93.5254 49.8238 94.2254 50.0684 94.8295 50.0971ZM101.964 45.6334C102.026 44.9047 101.446 44.056 99.6576 43.9649C99.0199 43.9649 98.2912 44.0848 97.596 44.3293C97.7781 44.6937 97.9316 45.178 97.9891 45.667C98.0514 46.1848 98.0227 46.4581 97.9316 46.4581C97.8692 46.4581 97.9028 46.3047 97.7781 45.8492C97.6583 45.3649 97.385 44.8807 97.1117 44.5115C96.3542 44.8759 95.5631 45.4512 94.8966 46.0602C94.7144 46.2136 94.2877 46.6691 94.048 46.9999C95.1412 47.5464 96.6275 47.791 98.085 47.791C100.089 47.791 101.94 46.9999 101.969 45.6382M101.964 55.0115C102.812 54.4937 103.45 53.9519 103.968 53.4964C104.121 53.3766 104.27 53.2232 104.361 53.3143C104.423 53.3766 104.299 53.5588 104.025 53.7985C103.723 54.0718 103.143 54.556 102.477 55.0115C101.81 55.467 101.139 55.8026 100.564 56.0423C100.017 56.2869 98.924 56.5889 98.0131 56.5889C96.4069 56.5889 96.0713 55.6156 96.1912 54.767C96.311 53.8896 97.011 53.1608 97.7398 53.1896C98.1665 53.2184 98.3775 53.5252 98.3151 53.856C98.2528 54.1581 98.0418 54.4026 97.6487 54.6136C97.3754 54.767 96.9822 55.0978 96.9487 55.5245C96.9199 56.0088 97.2843 56.2821 97.8309 56.2821C98.4398 56.2821 99.1973 55.7978 99.8638 54.6423C100.41 53.7601 100.957 51.943 101.288 51.5451V51.5163C100.986 51.8184 100.348 52.3074 99.8302 52.667C99.4035 52.9691 98.9192 53.2759 98.6795 53.3958C98.5597 53.4581 98.435 53.5156 98.3775 53.4245C98.3487 53.3334 98.3775 53.2711 98.5309 53.18C98.8329 52.9978 99.322 52.6958 99.8062 52.3314C100.353 51.9382 100.899 51.4827 101.599 50.8738C101.662 50.754 101.873 50.5095 102.084 50.3608C102.419 50.1163 102.75 50.0252 102.966 50.0252C103.666 50.0252 103.21 50.4184 102.812 50.6629C102.539 50.8451 102.237 50.9649 102.084 51.1184C101.839 51.3629 101.873 51.6026 101.873 51.9382C101.901 52.7869 101.964 53.578 101.599 54.4266C101.417 54.8533 100.99 55.4286 100.626 55.6732C100.962 55.5533 101.475 55.3088 101.964 55.0067M104.093 53.7362C103.882 53.9184 103.79 53.9471 103.728 53.8896C103.666 53.8273 103.728 53.7074 103.939 53.5252C104.759 52.7964 105.579 52.0677 106.154 51.5547C105.761 51.5547 105.425 51.5834 105.061 51.5834C104.85 51.5834 104.697 51.5834 104.725 51.43C104.754 51.3101 105.061 51.2766 105.545 51.2478C105.938 51.2191 106.274 51.2191 106.394 51.2191C107.334 50.0684 108.547 48.7307 109.247 48.0643C109.793 47.5177 110.522 46.8225 111.16 46.8225C111.462 46.8225 111.586 46.9136 111.615 47.0047C111.251 47.3403 110.464 48.1889 109.764 48.9752C109.064 49.7663 108.523 50.4328 107.914 51.2191C108.614 51.1903 109.16 51.1903 109.645 51.1903C109.889 51.1903 110.1 51.219 110.071 51.3725C110.043 51.5547 109.769 51.5259 109.525 51.5259C108.858 51.5259 108.369 51.5259 107.674 51.5547C107.065 52.2834 106.034 53.8321 105.488 54.8917C105.306 55.2273 105.214 55.6492 105.459 55.7691C105.641 55.8602 105.972 55.7691 106.217 55.6492C106.581 55.467 107.099 55.1314 107.583 54.7382C108.13 54.3115 108.643 53.8273 109.012 53.5252C109.165 53.4054 109.343 53.2232 109.438 53.3143C109.501 53.3766 109.438 53.4677 109.227 53.6786C108.892 54.0143 108.014 54.8006 107.377 55.2896C106.83 55.7163 105.737 56.5362 104.586 56.5362C103.886 56.5362 103.647 56.143 103.675 55.6875C103.738 54.93 104.433 53.8369 105.315 52.6814C104.831 53.0745 104.466 53.4102 104.102 53.7458M116.683 51.128C117.321 51.0992 117.383 51.2478 117.076 51.6122C116.683 52.0677 116.012 52.8252 115.379 53.6163C114.986 54.1006 114.588 54.6184 114.314 55.1026C114.103 55.467 114.103 55.7115 114.223 55.8026C114.377 55.9225 114.679 55.8026 114.923 55.6827C115.225 55.5293 115.806 55.1362 116.29 54.743C116.927 54.23 117.412 53.8033 117.747 53.5012C117.93 53.3478 118.083 53.1992 118.174 53.2903C118.265 53.3814 118.112 53.5348 117.781 53.8369C117.388 54.2012 116.659 54.8389 116.084 55.2944C115.475 55.7786 114.477 56.5074 113.475 56.5074C112.9 56.5074 112.627 56.2341 112.593 55.8697C112.564 55.5341 112.747 55.1122 113.02 54.7766L112.991 54.7478C112.2 55.4478 110.805 56.4499 109.654 56.5074C108.988 56.5362 108.288 56.2629 108.408 55.2944C108.47 54.8389 108.71 54.3547 109.256 53.717L109.227 53.6882C109.136 53.7793 109.017 53.8992 108.834 54.0526C108.714 54.1437 108.623 54.206 108.561 54.1437C108.499 54.0526 108.652 53.8704 108.988 53.5684C109.079 53.4773 109.597 53.0506 109.899 52.8396C110.201 52.6286 110.719 52.293 111.294 51.991C112.478 51.3821 113.538 51.0225 114.329 51.1423C114.938 51.2334 115.149 51.78 114.966 52.2978C115.695 51.5403 116.208 51.1423 116.697 51.1423M111.404 53.343C110.158 54.556 109.645 55.3471 109.707 55.7403C109.74 55.9512 109.889 56.0423 110.1 56.0423C110.675 56.0423 111.831 55.3759 112.651 54.6136C113.624 53.7649 114.712 52.4608 114.746 51.9718C114.775 51.5786 114.535 51.4252 114.199 51.4252C113.59 51.4252 112.497 52.2451 111.404 53.3382M117.872 53.7362C117.661 53.9184 117.57 53.9471 117.508 53.8896C117.445 53.8273 117.508 53.7074 117.719 53.5252C118.538 52.7964 119.358 52.0677 119.934 51.5547C119.54 51.5547 119.205 51.5834 118.84 51.5834C118.63 51.5834 118.476 51.5834 118.505 51.43C118.534 51.3101 118.84 51.2766 119.325 51.2478C119.718 51.2191 120.053 51.2191 120.173 51.2191C121.113 50.0684 122.326 48.7307 123.026 48.0643C123.573 47.5177 124.301 46.8225 124.939 46.8225C125.241 46.8225 125.366 46.9136 125.395 47.0047C125.03 47.3403 124.239 48.1889 123.544 48.9752C122.844 49.7663 122.302 50.4328 121.693 51.2191C122.393 51.1903 122.94 51.1903 123.424 51.1903C123.669 51.1903 123.88 51.219 123.851 51.3725C123.822 51.5547 123.549 51.5259 123.304 51.5259C122.638 51.5259 122.149 51.5259 121.453 51.5547C120.845 52.2834 119.814 53.8321 119.267 54.8917C119.085 55.2273 118.994 55.6492 119.238 55.7691C119.421 55.8602 119.756 55.7691 119.996 55.6492C120.36 55.467 120.878 55.1314 121.362 54.7382C121.909 54.3115 122.422 53.8273 122.791 53.5252C122.945 53.4054 123.127 53.2232 123.218 53.3143C123.28 53.3766 123.218 53.4677 123.007 53.6786C122.671 54.0143 121.794 54.8006 121.156 55.2896C120.61 55.7163 119.517 56.5362 118.366 56.5362C117.666 56.5362 117.426 56.143 117.455 55.6875C117.517 54.93 118.212 53.8369 119.095 52.6814C118.61 53.0745 118.246 53.4102 117.882 53.7458M127.37 55.0115C127.945 54.6184 128.645 54.0718 129.221 53.554C129.403 53.4006 129.494 53.3718 129.556 53.4341C129.619 53.5252 129.494 53.6786 129.312 53.8273C128.919 54.1917 127.945 54.978 127.399 55.3423C126.123 56.191 125.001 56.5889 123.971 56.5889C122.849 56.5889 122.331 56.1622 122.36 55.3759C122.388 54.767 122.662 54.2252 123.271 53.4964L123.242 53.4677C123.151 53.5588 122.815 53.8608 122.633 54.0143C122.48 54.1341 122.388 54.1677 122.331 54.1054C122.269 54.0143 122.393 53.8944 122.513 53.7697C122.906 53.4053 123.18 53.1944 123.635 52.8588C123.971 52.6143 124.546 52.2499 125.121 51.9478C126.003 51.4923 126.91 51.0992 127.729 51.0992H127.763C128.43 51.0992 128.674 51.5259 128.645 51.919C128.583 52.7053 127.614 53.3143 126.703 53.7697C125.821 54.1964 124.79 54.5608 124.095 54.7382C123.975 54.9827 123.913 55.256 123.913 55.4382C123.913 55.8937 124.158 56.1382 124.613 56.1382C125.006 56.1382 126.037 55.9273 127.375 55.0163M126.334 53.4964C127.092 52.9786 127.547 52.341 127.581 51.919C127.614 51.6458 127.49 51.4923 127.217 51.4923C126.943 51.4923 126.488 51.7944 125.884 52.3745C125.399 52.83 124.637 53.8033 124.277 54.4074C124.886 54.254 125.706 53.9232 126.339 53.4964M48.7877 63.1766H50.0295V63.2485C50.0295 63.5793 49.9288 63.9389 49.7418 64.193C49.6507 64.3129 49.3151 64.73 48.6295 64.73C47.7425 64.73 47.0809 64.054 47.0809 63.1862C47.0809 62.3184 47.7473 61.6423 48.6391 61.6423C48.9268 61.6423 49.2624 61.7143 49.5501 61.9396C49.6843 62.0403 49.809 62.1745 49.8953 62.2944L49.6507 62.5197C49.5644 62.3999 49.4686 62.2896 49.3679 62.2129C49.224 62.0978 48.9987 61.9636 48.6439 61.9636C47.9247 61.9636 47.4213 62.5054 47.4213 63.2006C47.4213 64.0156 48.0686 64.428 48.6343 64.428C49.0323 64.428 49.3775 64.2266 49.5453 63.9245C49.598 63.8286 49.6555 63.6896 49.6651 63.4978H48.7781V63.1862L48.7877 63.1766ZM51.1802 61.6903C51.4775 61.6903 51.7316 61.7286 51.9329 61.9012C52.1535 62.0882 52.2062 62.3519 52.2062 62.5437C52.2062 62.9656 51.9425 63.378 51.2617 63.378H50.9692V64.6773H50.6384V61.6903H51.1802ZM50.9692 63.0663H51.2425C51.6357 63.0663 51.8754 62.8697 51.8754 62.5245C51.8754 62.0499 51.4343 62.0067 51.2186 62.0067H50.974V63.0663H50.9692ZM52.3836 64.2745C52.5035 64.2745 52.609 64.3752 52.609 64.4999C52.609 64.6245 52.5083 64.7252 52.3836 64.7252C52.259 64.7252 52.1583 64.6245 52.1583 64.4999C52.1583 64.3752 52.259 64.2745 52.3836 64.2745ZM53.611 64.6773H53.2802V61.6903H53.611V64.6773ZM54.3782 64.6773V61.5656L56.7035 64.006V61.6903H57.0343V64.8115L54.709 62.3711V64.6773H54.3782ZM57.8254 61.6903L58.6644 63.9677L59.5083 61.6903H59.8727L58.6644 64.8547L57.4562 61.6903H57.8254ZM61.8432 62.0067H60.6254V62.8937H61.8049V63.2054H60.6254V64.3656H61.8432V64.6773H60.2946V61.6903H61.8432V62.0019V62.0067ZM63.7898 62.28C63.7514 62.1985 63.6843 62.1122 63.6172 62.0547C63.5597 62.0115 63.4494 61.9492 63.2816 61.9492C62.9843 61.9492 62.7829 62.1314 62.7829 62.4095C62.7829 62.5245 62.8165 62.5917 62.8932 62.6684C62.9843 62.7595 63.0946 62.8074 63.2049 62.8554L63.4925 62.98C63.6651 63.0567 63.8282 63.1382 63.9528 63.2629C64.1062 63.4163 64.1686 63.5889 64.1686 63.8047C64.1686 64.356 63.761 64.7204 63.224 64.7204C63.0275 64.7204 62.7829 64.6821 62.5768 64.4807C62.4281 64.3369 62.3418 64.1307 62.2987 63.9533L62.6199 63.8622C62.6439 64.0204 62.7158 64.1547 62.7973 64.241C62.9268 64.3704 63.0754 64.4088 63.2288 64.4088C63.6364 64.4088 63.8281 64.1163 63.8281 63.819C63.8281 63.6848 63.7898 63.5697 63.6795 63.4691C63.5932 63.3875 63.4781 63.3348 63.3199 63.2629L63.0514 63.1382C62.9364 63.0855 62.7877 63.0232 62.6535 62.8937C62.524 62.769 62.4473 62.63 62.4473 62.4047C62.4473 61.9444 62.8021 61.6328 63.2816 61.6328C63.4638 61.6328 63.6124 61.6663 63.761 61.767C63.8809 61.8485 63.9864 61.9684 64.0535 62.0978L63.7898 62.2704V62.28ZM65.3192 62.0067V64.6773H64.9884V62.0067H64.2645V61.6951H66.0432V62.0067H65.3192ZM68.0138 61.6903C68.2151 61.6903 68.5172 61.7047 68.7377 61.8581C68.9151 61.9732 69.0638 62.2033 69.0638 62.5197C69.0638 62.9752 68.7665 63.3108 68.311 63.3444L69.2603 64.6773H68.8576L67.9466 63.3684H67.8603V64.6773H67.5295V61.6903H68.009H68.0138ZM67.8651 63.0759H68.0761C68.4884 63.0759 68.7329 62.8793 68.7329 62.5293C68.7329 62.3615 68.685 62.1985 68.498 62.0882C68.3638 62.0115 68.2103 62.0019 68.0665 62.0019H67.8651V63.0711V63.0759ZM71.3268 62.0067H70.109V62.8937H71.2884V63.2054H70.109V64.3656H71.3268V64.6773H69.7782V61.6903H71.3268V62.0019V62.0067ZM73.2733 62.28C73.235 62.1985 73.1679 62.1122 73.1007 62.0547C73.0432 62.0115 72.9329 61.9492 72.7651 61.9492C72.4679 61.9492 72.2665 62.1314 72.2665 62.4095C72.2665 62.5245 72.3001 62.5917 72.3768 62.6684C72.4679 62.7595 72.5781 62.8074 72.6884 62.8554L72.9761 62.98C73.1487 63.0567 73.3117 63.1382 73.4364 63.2629C73.5898 63.4163 73.6521 63.5889 73.6521 63.8047C73.6521 64.356 73.2446 64.7204 72.7076 64.7204C72.511 64.7204 72.2665 64.6821 72.0603 64.4807C71.9117 64.3369 71.8254 64.1307 71.7823 63.9533L72.1035 63.8622C72.1275 64.0204 72.1994 64.1547 72.2809 64.241C72.4103 64.3704 72.559 64.4088 72.7124 64.4088C73.1199 64.4088 73.3117 64.1163 73.3117 63.819C73.3117 63.6848 73.2734 63.5697 73.1631 63.4691C73.0768 63.3875 72.9617 63.3348 72.8035 63.2629L72.535 63.1382C72.4199 63.0855 72.2713 63.0232 72.137 62.8937C72.0076 62.769 71.9309 62.63 71.9309 62.4047C71.9309 61.9444 72.2857 61.6328 72.7699 61.6328C72.9521 61.6328 73.1007 61.6663 73.2494 61.767C73.3692 61.8485 73.4747 61.9684 73.5419 62.0978L73.2781 62.2704L73.2733 62.28ZM74.5871 64.6773H74.2562V61.6903H74.5871V64.6773ZM75.359 61.6903H75.9679C76.2699 61.6903 76.6918 61.7238 77.0706 62.0403C77.3439 62.2704 77.5788 62.6492 77.5788 63.1862C77.5788 63.8143 77.272 64.1499 77.0562 64.3321C76.7829 64.567 76.4953 64.6773 75.9631 64.6773H75.359V61.6903ZM75.6898 64.3608H75.9823C76.2172 64.3608 76.548 64.3321 76.8357 64.0923C77.061 63.9053 77.2384 63.6081 77.2384 63.1862C77.2384 62.4718 76.735 62.0067 75.9823 62.0067H75.6898V64.3656V64.3608ZM79.7316 62.0067H78.5138V62.8937H79.6932V63.2054H78.5138V64.3656H79.7316V64.6773H78.1829V61.6903H79.7316V62.0019V62.0067ZM80.3405 64.6773V61.5656L82.6658 64.006V61.6903H82.9966V64.8115L80.6713 62.3711V64.6773H80.3405ZM86.0508 62.3471C85.9549 62.2512 85.8158 62.141 85.6624 62.0691C85.5042 61.9971 85.322 61.954 85.1494 61.954C84.459 61.954 83.9508 62.5101 83.9508 63.2006C83.9508 64.0108 84.6076 64.4184 85.1542 64.4184C85.3555 64.4184 85.5521 64.3608 85.7103 64.2793C85.8829 64.193 86.0028 64.0828 86.0555 64.03V64.4423C85.7247 64.6773 85.3795 64.7348 85.1542 64.7348C84.2672 64.7348 83.6103 64.0636 83.6103 63.2006C83.6103 62.3375 84.2768 61.6471 85.1733 61.6471C85.3507 61.6471 85.6959 61.6711 86.0555 61.9444V62.3567L86.0508 62.3471ZM88.2083 62.0067H86.9905V62.8937H88.1699V63.2054H86.9905V64.3656H88.2083V64.6773H86.6597V61.6903H88.2083V62.0019V62.0067Z" fill="#F7C587"></path><path d="M70.2621 26.0093C70.2621 28.0134 69.7156 29.8689 68.7998 31.3743C68.7615 31.4415 68.7183 31.5086 68.6752 31.5709C68.4738 31.8826 68.258 32.175 68.0279 32.4531C67.98 32.5106 67.932 32.5634 67.8841 32.6161C66.5512 34.1264 64.7628 35.0517 62.8115 35.0517H59.043V34.8264H61.7471C63.9382 34.8264 65.9087 33.6325 67.2464 31.7531C67.2896 31.6908 67.3327 31.6284 67.3758 31.5661C67.6156 31.2113 67.8313 30.8278 68.0231 30.4298C68.0615 30.3483 68.0998 30.2668 68.1382 30.1853C68.6943 28.9387 69.0156 27.5147 69.0156 26.0045C69.0156 24.4942 68.6991 23.0702 68.1382 21.8236C68.0998 21.7421 68.0615 21.6606 68.0231 21.5791C67.8313 21.1812 67.6156 20.8024 67.3758 20.4476C67.3327 20.3853 67.2896 20.323 67.2464 20.2606C65.9135 18.3812 63.9382 17.1873 61.7471 17.1873H59.043V16.9668H62.8115C64.7676 16.9668 66.5512 17.8921 67.8841 19.4024C67.932 19.4552 67.98 19.5127 68.0279 19.5654C68.0423 19.5846 68.0567 19.6038 68.0758 19.6182C68.2916 19.8771 68.493 20.1552 68.68 20.4428C68.7231 20.5052 68.7615 20.5723 68.8046 20.6394C69.7252 22.1401 70.2669 24.0004 70.2669 26.0045" fill="#F7C587"></path><path d="M77.4349 16.9668V17.1873H74.3041C72.113 17.1873 70.1424 18.3812 68.8048 20.2606C68.6226 19.9778 68.426 19.7093 68.215 19.4552C68.2006 19.436 68.1863 19.4216 68.1719 19.4024C69.5048 17.8921 71.2883 16.9668 73.2445 16.9668H77.4349Z" fill="#F7C587"></path><path d="M77.4349 34.8263V35.0516H73.2445C71.2883 35.0516 69.5048 34.1263 68.1719 32.616C68.3972 32.3523 68.6082 32.0599 68.8048 31.7578C70.1376 33.6373 72.113 34.8311 74.3041 34.8311H77.4349V34.8263Z" fill="#F7C587"></path><path d="M67.0404 26.0096C67.0404 27.5199 67.3569 28.9486 67.913 30.1952C67.8939 30.2384 67.8747 30.2767 67.8555 30.3151C67.6781 30.6843 67.4767 31.0438 67.2514 31.3747C66.3308 29.874 65.7891 28.0137 65.7891 26.0096C65.7891 24.0055 66.3308 22.15 67.2514 20.6445C67.4719 20.9754 67.6733 21.3301 67.8507 21.6993C67.8699 21.7425 67.8891 21.7808 67.9082 21.824C67.3521 23.0706 67.0356 24.4945 67.0356 26.0048" fill="#F7C587"></path><path d="M63.9161 25.5865V25.2221C63.9161 25.0879 64.0024 24.9824 64.1127 24.9824H62.9668C63.0771 24.9824 63.1634 25.0879 63.1634 25.2221V25.5865C63.1634 25.716 63.0771 25.8263 62.9668 25.8263H64.1127C64.0024 25.8263 63.9161 25.7208 63.9161 25.5865Z" fill="#F7C587"></path><path d="M63.9161 26.7916V26.4272C63.9161 26.293 64.0024 26.1875 64.1127 26.1875H62.9668C63.0771 26.1875 63.1634 26.293 63.1634 26.4272V26.7916C63.1634 26.9211 63.0771 27.0313 62.9668 27.0313H64.1127C64.0024 27.0313 63.9161 26.9259 63.9161 26.7916Z" fill="#F7C587"></path><path d="M72.8946 25.5865V25.2221C72.8946 25.0879 72.9809 24.9824 73.0912 24.9824H71.9453C72.0556 24.9824 72.1419 25.0879 72.1419 25.2221V25.5865C72.1419 25.716 72.0556 25.8263 71.9453 25.8263H73.0912C72.9809 25.8263 72.8946 25.7208 72.8946 25.5865Z" fill="#F7C587"></path><path d="M72.8946 26.7916V26.4272C72.8946 26.293 72.9809 26.1875 73.0912 26.1875H71.9453C72.0556 26.1875 72.1419 26.293 72.1419 26.4272V26.7916C72.1419 26.9211 72.0556 27.0313 71.9453 27.0313H73.0912C72.9809 27.0313 72.8946 26.9259 72.8946 26.7916Z" fill="#F7C587"></path><path d="M73.0924 25.8281H70.2637V26.1877H73.0924V25.8281Z" fill="#F7C587"></path><path d="M65.7956 25.8281H62.9668V26.1877H65.7956V25.8281Z" fill="#F7C587"></path><path d="M59.3984 17.1875C59.5087 17.1875 59.595 17.293 59.595 17.4272V19.23H60.3477V17.4272C60.3477 17.2978 60.434 17.1875 60.5443 17.1875H59.4032H59.3984Z" fill="#F7C587"></path><path d="M75.8633 17.1875C75.9736 17.1875 76.0599 17.293 76.0599 17.4272V19.23H76.8126V17.4272C76.8126 17.2978 76.8989 17.1875 77.0092 17.1875H75.8681H75.8633Z" fill="#F7C587"></path><path d="M60.3477 18.9902V17.4128C60.3525 17.2882 60.4388 17.1875 60.5443 17.1875H59.3984C59.5087 17.1875 59.595 17.293 59.595 17.4272V19.0046C59.5902 19.1293 59.5039 19.23 59.3984 19.23H60.5443C60.434 19.23 60.3477 19.1245 60.3477 18.9902Z" fill="#F7C587"></path><path d="M76.8087 18.9902V17.4128C76.8135 17.2882 76.8998 17.1875 77.0053 17.1875H75.8594C75.9696 17.1875 76.056 17.293 76.056 17.4272V19.0046C76.0512 19.1293 75.9649 19.23 75.8594 19.23H77.0053C76.895 19.23 76.8087 19.1245 76.8087 18.9902Z" fill="#F7C587"></path><path d="M60.3477 34.5879V33.0105C60.3525 32.8858 60.4388 32.7852 60.5443 32.7852H59.3984C59.5087 32.7852 59.595 32.8906 59.595 33.0249V34.6023C59.5902 34.7269 59.5039 34.8276 59.3984 34.8276H60.5443C60.434 34.8276 60.3477 34.7221 60.3477 34.5879Z" fill="#F7C587"></path><path d="M76.8087 34.5879V33.0105C76.8135 32.8858 76.8998 32.7852 77.0053 32.7852H75.8594C75.9696 32.7852 76.056 32.8906 76.056 33.0249V34.6023C76.0512 34.7269 75.9649 34.8276 75.8594 34.8276H77.0053C76.895 34.8276 76.8087 34.7221 76.8087 34.5879Z" fill="#F7C587"></path><path d="M75.8886 4.97555L87.6256 16.7413V33.5173L75.8886 45.2831H59.4146L47.6776 33.5173V16.7413L59.4146 4.97555H75.8886ZM76.1331 4.39062H59.1701L47.0879 16.5016V33.7619L59.1701 45.8728H76.1331L88.2153 33.7619V16.5016L76.1331 4.39062Z" fill="#F7C587"></path><path d="M75.3694 6.33315L86.3345 17.327V32.9427L75.3694 43.9366H59.9262L48.9612 32.9427V17.327L59.9262 6.33315H75.3694ZM75.6091 5.75781H59.6913L48.3906 17.0873V33.1777L59.6913 44.5071H75.6091L86.9098 33.1777V17.0873L75.6091 5.75781Z" fill="#F7C587"></path><path d="M74.853 7.69945L85.0366 17.9118V32.3529L74.853 42.5652H60.4503L50.2667 32.3529V17.9118L60.4503 7.69945H74.853ZM75.088 7.12891H60.2106L49.6914 17.6768V32.5926L60.2106 43.1405H75.088L85.6071 32.5926V17.6768L75.088 7.12891Z" fill="#F7C587"></path></g></svg> 