<?xml version="1.0" encoding="UTF-8"?> <svg xmlns="http://www.w3.org/2000/svg" width="1185" height="790" viewBox="0 0 1185 790" fill="none"><mask id="path-1-inside-1_142_3" fill="white"><path d="M1149 0.338867C1149 20.2953 1165.09 36.4916 1185 36.6729V754.004C1165.2 754.184 1149.18 770.199 1149 790H36.6729C36.4911 770.087 20.2949 754 0.338867 754C0.225904 754 0.11272 754.003 0 754.004V36.6729C0.112721 36.6739 0.225903 36.6777 0.338867 36.6777C20.4078 36.6775 36.6775 20.4078 36.6777 0.338867C36.6777 0.225906 36.6739 0.112718 36.6729 0H1149C1149 0.112718 1149 0.225907 1149 0.338867Z"></path></mask><path d="M1149 0.338867L1148 0.338866V0.338877L1149 0.338867ZM1185 36.6729H1186V35.6819L1185.01 35.6729L1185 36.6729ZM1185 754.004L1185.01 755.004L1186 754.995V754.004H1185ZM1149 790V791H1149.99L1150 790.009L1149 790ZM36.6729 790L35.6729 790.009L35.6819 791H36.6729V790ZM0.338867 754L0.338877 753H0.338866L0.338867 754ZM0 754.004H-1V755.013L0.00912638 755.004L0 754.004ZM0 36.6729L0.00912642 35.6729L-1 35.6637V36.6729H0ZM0.338867 36.6777L0.338866 37.6777H0.338877L0.338867 36.6777ZM36.6777 0.338867L37.6777 0.338877V0.338866L36.6777 0.338867ZM36.6729 0V-1H35.6637L35.6729 0.00912622L36.6729 0ZM1149 0L1150 0.00912617L1150.01 -1H1149V0ZM1149 0.338867L1148 0.338877C1148 20.8446 1164.53 37.4866 1184.99 37.6728L1185 36.6729L1185.01 35.6729C1165.64 35.4967 1150 19.7459 1150 0.338857L1149 0.338867ZM1185 36.6729H1184V754.004H1185H1186V36.6729H1185ZM1185 754.004L1184.99 753.004C1164.65 753.189 1148.19 769.645 1148 789.991L1149 790L1150 790.009C1150.18 770.753 1165.75 755.179 1185.01 755.004L1185 754.004ZM1149 790V789H36.6729V790V791H1149V790ZM36.6729 790L37.6728 789.991C37.4861 769.53 20.8443 753 0.338877 753L0.338867 754L0.338857 755C19.7456 755 35.4962 770.644 35.6729 790.009L36.6729 790ZM0.338867 754L0.338866 753C0.224869 753 0.0767852 753.003 -0.00912638 753.004L0 754.004L0.00912638 755.004C0.148655 755.003 0.226939 755 0.338868 755L0.338867 754ZM0 754.004H1V36.6729H0H-1V754.004H0ZM0 36.6729L-0.00912642 37.6728C0.0551237 37.6734 0.235014 37.6777 0.338866 37.6777L0.338867 36.6777L0.338868 35.6777C0.216793 35.6777 0.170318 35.6744 0.00912642 35.6729L0 36.6729ZM0.338867 36.6777L0.338877 37.6777C20.9601 37.6775 37.6775 20.9601 37.6777 0.338877L36.6777 0.338867L35.6777 0.338857C35.6775 19.8555 19.8555 35.6775 0.338857 35.6777L0.338867 36.6777ZM36.6777 0.338867L37.6777 0.338866C37.6777 0.235017 37.6734 0.0551207 37.6728 -0.00912622L36.6729 0L35.6729 0.00912622C35.6744 0.170316 35.6777 0.216795 35.6777 0.338868L36.6777 0.338867ZM36.6729 0V1H1149V0V-1H36.6729V0ZM1149 0L1148 -0.00912617C1148 0.0767822 1148 0.224872 1148 0.338866L1149 0.338867L1150 0.338868C1150 0.226941 1150 0.148653 1150 0.00912617L1149 0Z" fill="#F7C587" mask="url(#path-1-inside-1_142_3)"></path></svg> 