<?xml version="1.0" encoding="UTF-8"?> <svg xmlns="http://www.w3.org/2000/svg" width="460" height="671" viewBox="0 0 460 671" fill="none"><mask id="path-1-inside-1_123_5" fill="white"><path d="M438.82 0.0683594C438.82 11.5844 448.155 20.9192 459.671 20.9209V649.774C448.186 649.812 438.887 659.134 438.887 670.628C438.887 670.651 438.888 670.674 438.888 670.697H20.7842C20.7843 670.674 20.7852 670.651 20.7852 670.628C20.7849 659.134 11.4856 649.811 0 649.774V20.8965C0.346798 20.9136 0.695823 20.9219 1.04688 20.9219C12.564 20.9219 21.9004 11.5855 21.9004 0.0683594C21.9004 0.0455633 21.8995 0.022779 21.8994 0H438.821C438.821 0.0227787 438.82 0.0455635 438.82 0.0683594Z"></path></mask><path d="M438.82 0.0683594L437.82 0.0683333V0.0683594H438.82ZM459.671 20.9209H460.671V19.921L459.671 19.9209L459.671 20.9209ZM459.671 649.774L459.674 650.774L460.671 650.771V649.774H459.671ZM438.887 670.628H437.887V670.628H438.887ZM438.888 670.697V671.697H439.891L439.888 670.694L438.888 670.697ZM20.7842 670.697L19.7842 670.694L19.7809 671.697H20.7842V670.697ZM20.7852 670.628H21.7852V670.628H20.7852ZM0 649.774H-1V650.771L-0.00320317 650.774L0 649.774ZM0 20.8965L0.0493903 19.8977L-1 19.8458V20.8965H0ZM1.04688 20.9219L1.04687 21.9219H1.04688V20.9219ZM21.9004 0.0683594H22.9004V0.0683333L21.9004 0.0683594ZM21.8994 0V-1H20.8962L20.8994 0.00323511L21.8994 0ZM438.821 0L439.821 0.0032351L439.825 -1H438.821V0ZM438.82 0.0683594H437.82C437.82 12.1367 447.603 21.9191 459.671 21.9209L459.671 20.9209L459.671 19.9209C448.708 19.9193 439.82 11.0321 439.82 0.0683594H438.82ZM459.671 20.9209H458.671V649.774H459.671H460.671V20.9209H459.671ZM459.671 649.774L459.668 648.774C447.632 648.814 437.887 658.583 437.887 670.628H438.887H439.887C439.887 659.685 448.74 650.81 459.674 650.774L459.671 649.774ZM438.887 670.628H437.887C437.887 670.651 437.887 670.672 437.887 670.683C437.888 670.689 437.888 670.693 437.888 670.696C437.888 670.7 437.888 670.701 437.888 670.701L438.888 670.697L439.888 670.694C439.888 670.672 439.887 670.652 439.887 670.642C439.887 670.63 439.887 670.628 439.887 670.628H438.887ZM438.888 670.697V669.697H20.7842V670.697V671.697H438.888V670.697ZM20.7842 670.697L21.7842 670.701C21.7842 670.701 21.7842 670.7 21.7842 670.696C21.7843 670.693 21.7844 670.689 21.7845 670.683C21.7847 670.672 21.7852 670.651 21.7852 670.628H20.7852H19.7852C19.7852 670.628 19.7852 670.63 19.7849 670.642C19.7847 670.652 19.7843 670.672 19.7842 670.694L20.7842 670.697ZM20.7852 670.628H21.7852C21.7849 658.583 12.0397 648.813 0.00320317 648.774L0 649.774L-0.00320317 650.774C10.9315 650.809 19.7849 659.685 19.7852 670.628H20.7852ZM0 649.774H1V20.8965H0H-1V649.774H0ZM0 20.8965L-0.0493903 21.8953C0.314675 21.9133 0.680188 21.9219 1.04687 21.9219L1.04688 20.9219L1.04688 19.9219C0.711458 19.9219 0.37892 19.914 0.0493903 19.8977L0 20.8965ZM1.04688 20.9219V21.9219C13.1163 21.9219 22.9004 12.1378 22.9004 0.0683594H21.9004H20.9004C20.9004 11.0332 12.0117 19.9219 1.04688 19.9219V20.9219ZM21.9004 0.0683594L22.9004 0.0683333C22.9004 0.0452062 22.8999 0.0240367 22.8997 0.0135636C22.8996 0.00712213 22.8995 0.00369177 22.8995 0.000414733C22.8994 -0.00252586 22.8994 -0.00346265 22.8994 -0.00323511L21.8994 0L20.8994 0.00323511C20.8995 0.0250177 20.9 0.0456587 20.9001 0.0547829C20.9004 0.0670958 20.9004 0.0687165 20.9004 0.0683854L21.9004 0.0683594ZM21.8994 0V1H438.821V0V-1H21.8994V0ZM438.821 0L437.821 -0.0032351C437.821 -0.00346274 437.821 -0.00252598 437.821 0.00041469C437.821 0.00369179 437.821 0.00712221 437.821 0.0135637C437.821 0.0240367 437.82 0.0452064 437.82 0.0683333L438.82 0.0683594L439.82 0.0683854C439.82 0.0687166 439.82 0.0670959 439.821 0.0547828C439.821 0.0456586 439.821 0.0250176 439.821 0.0032351L438.821 0Z" fill="#F7C587" mask="url(#path-1-inside-1_123_5)"></path></svg> 