<svg width="438" height="643" viewBox="0 0 438 643" fill="none" xmlns="http://www.w3.org/2000/svg">
<path d="M417.821 0.0664062C417.821 11.0671 426.739 19.9836 437.739 19.9854V622.772C426.739 622.775 417.822 631.693 417.822 642.693C417.822 642.695 417.822 642.696 417.822 642.697H19.917C19.9171 642.675 19.918 642.653 19.918 642.631C19.9178 631.63 11.0005 622.712 0 622.711V19.8994C0.330319 19.9157 0.662711 19.9248 0.99707 19.9248C11.9988 19.9247 20.9179 11.0057 20.918 0.00390625C20.918 0.00260412 20.918 0.00130207 20.918 0H417.822C417.822 0.0221276 417.821 0.0442617 417.821 0.0664062Z" fill="#D9D9D9"/>
</svg>